+8_ID_stride5.mot
nRows=6
nColumns=38

name +8_ID_stride5.mot
datacolumns 38
datarows 6
range 2.3200000000 2.3450000000
endheader
time	pelvis_tilt_moment	pelvis_list_moment	pelvis_rotation_moment	pelvis_tx_force	pelvis_ty_force	pelvis_tz_force	hip_flexion_r_moment	hip_adduction_r_moment	hip_rotation_r_moment	knee_angle_r_moment	ankle_angle_r_moment	subtalar_angle_r_moment	mtp_angle_r_moment	hip_flexion_l_moment	hip_adduction_l_moment	hip_rotation_l_moment	knee_angle_l_moment	ankle_angle_l_moment	subtalar_angle_l_moment	mtp_angle_l_moment	lumbar_extension_moment	lumbar_bending_moment	lumbar_rotation_moment	arm_flex_r_moment	arm_add_r_moment	arm_rot_r_moment	elbow_flex_r_moment	pro_sup_r_moment	wrist_flex_r_moment	wrist_dev_r_moment	arm_flex_l_moment	arm_add_l_moment	arm_rot_l_moment	elbow_flex_l_moment	pro_sup_l_moment	wrist_flex_l_moment	wrist_dev_l_moment
        2.3200000000	      -28.4644696739	       42.2008285285	       16.4629388653	      -14.0351523301	      362.6033929186	      197.5725372668	       68.1125852021	      -17.0961301882	        5.6109035044	       27.2317929299	        4.3983738987	       -0.8397027432	        0.2095604900	      -58.0482999887	      -17.7938685077	        3.0918966917	      -26.4656810488	       15.4653943729	       -1.8526602584	        0.1253321461	       52.0556908260	       22.5253785709	       -2.1129391179	       -3.6952678482	        0.4432194028	        0.4928731500	        1.3248229058	       -0.0180136107	        0.0755441438	       -0.1020354414	       -3.3166845183	        0.8717961040	        0.8604648048	        1.4817108593	       -0.0013387956	        0.1238291503	       -0.1042165597	
        2.3250000000	      -46.5225036235	       70.8214318127	       27.4460795856	       -4.5982695003	      405.7782527275	      182.9310205058	       64.2665026599	      -13.4734619274	        5.1927153040	       26.3540731829	        4.5017493632	       -0.7870430884	        0.2277677916	      -37.7168938652	      -38.6349091100	       -0.1024757957	       -6.2203551291	       21.9032678571	       -4.1807261392	        0.2120786616	       62.4428566390	       28.0533662660	        1.5810118064	       -4.1969218192	        0.5768821160	        0.8475202973	        1.8724206600	       -0.0165493496	        0.1291832754	       -0.1327569957	       -4.7109046227	        1.0012642315	        0.8397144046	        1.9597699659	       -0.0147500373	        0.1228567410	       -0.1410115455	
        2.3300000000	      -56.6561415634	       75.9012856428	       39.5271521787	        1.1012963482	      382.1698315334	      130.6636398697	       64.6819123296	       -8.6128742803	        4.1934765536	       25.8121545343	        4.5935433612	       -0.7147799053	        0.2418134754	      -40.5931710978	      -54.4631453534	       -7.8498697347	        2.5753640853	       18.6765605813	       -5.5522872751	        0.2870633913	       65.5237111278	       32.0095537138	        4.5604079428	       -4.0698443459	        0.6096887080	        1.0422176836	        2.3886162592	       -0.0200976146	        0.1651361478	       -0.1650929313	       -5.3080647016	        1.2185126184	        0.8119518545	        2.4166970954	       -0.0276574977	        0.1207995991	       -0.1774001148	
        2.3350000000	      -54.8369638646	       64.4463751160	       49.0353321806	       -2.2490641931	      278.0329141215	       50.1956228241	       68.2149859436	       -2.9999493209	        2.8554371763	       26.0160178706	        4.6436187656	       -0.6264273246	        0.2497071047	      -56.9909944137	      -64.6455046429	      -16.5923485770	        5.9979072421	        7.1118930595	       -5.3154873772	        0.3412609814	       59.0855589083	       31.6916771976	        6.8423074967	       -3.3927386667	        0.6503632878	        1.1205167782	        2.6994260579	       -0.0228565461	        0.1826908980	       -0.1826060842	       -5.0499240505	        1.2785337486	        0.6939721900	        2.6726335244	       -0.0386856394	        0.1075332344	       -0.1994344383	
        2.3400000000	      -45.6505141810	       37.2360721275	       54.5783528349	      -13.0422585279	      109.4063760520	      -30.5782639775	       73.2015771667	        2.9915056995	        1.3375858893	       26.7408713523	        4.6265635545	       -0.5253795104	        0.2493635115	      -85.3016436064	      -64.9000269343	      -25.2161003099	        6.2305219218	      -10.9501185959	       -4.8015635562	        0.3531891840	       44.8410518471	       28.7830486470	        8.5535480026	       -2.3205037962	        0.7765155098	        1.1878268416	        2.6976041943	       -0.0216772180	        0.1884018984	       -0.1787939956	       -4.3593056147	        1.1544153597	        0.4476484722	        2.6488538608	       -0.0476393376	        0.0788950822	       -0.1989162983	
        2.3450000000	      -26.7957611045	       -1.6919112295	       57.0382421765	      -32.3372110381	      -81.7648717739	      -85.8950518824	       77.3119062752	        9.1254169986	       -0.2453803777	       27.9944827924	        4.5467826617	       -0.4160909546	        0.2450684502	     -119.2346822388	      -61.6036873087	      -33.1287480186	        6.1366847545	      -31.3023749315	       -4.4310004593	        0.3553586901	       26.5266354502	       21.9352569487	        9.8667767098	       -1.1312776170	        1.0497925211	        1.2701482971	        2.5898860920	       -0.0168661154	        0.1918366855	       -0.1622980071	       -3.3602588599	        0.7398844975	        0.0870599756	        2.4992174293	       -0.0556485041	        0.0380956466	       -0.1907136577	
